<?xml version="1.0" standalone="no"?>
<!DOCTYPE svg PUBLIC "-//W3C//DTD SVG 20010904//EN"
 "http://www.w3.org/TR/2001/REC-SVG-20010904/DTD/svg10.dtd">
<svg version="1.0" xmlns="http://www.w3.org/2000/svg"
 width="700.000000pt" height="700.000000pt" viewBox="0 0 700.000000 700.000000"
 preserveAspectRatio="xMidYMid meet">
<metadata>
Created by potrace 1.11, written by Peter Selinger 2001-2013
</metadata>
<g transform="translate(0.000000,700.000000) scale(0.100000,-0.100000)"
fill="#000000" stroke="none">
<path d="M3285 6994 c-203 -20 -276 -28 -375 -45 -610 -105 -1195 -376 -1665
-772 -95 -81 -310 -294 -394 -392 -468 -542 -742 -1176 -833 -1925 -17 -137
-17 -583 0 -720 69 -569 227 -1028 514 -1491 145 -236 311 -440 525 -649 204
-200 371 -332 592 -468 463 -287 922 -445 1491 -514 137 -17 583 -17 720 0
569 69 1028 227 1491 514 221 136 388 268 592 468 270 263 477 538 654 870 47
87 143 295 143 308 0 4 -21 -31 -47 -76 -263 -452 -775 -701 -1288 -627 -294
42 -541 169 -746 382 -132 137 -228 293 -287 468 -251 740 194 1517 961 1676
129 27 340 29 473 6 391 -70 721 -311 913 -669 128 -238 176 -555 125 -836
-13 -70 4 -27 35 88 84 318 115 560 116 905 0 263 -8 364 -46 590 -105 627
-382 1216 -800 1700 -84 98 -299 311 -394 392 -518 437 -1148 710 -1845 798
-117 15 -536 28 -625 19z m-508 -1000 c371 -83 635 -437 610 -819 -23 -343
-250 -621 -584 -717 -102 -30 -303 -32 -403 -5 -161 45 -326 153 -425 278
-116 149 -168 301 -167 494 0 148 22 237 89 368 63 124 199 261 318 324 187
97 364 122 562 77z m1811 -240 c381 -79 663 -339 778 -719 26 -84 28 -102 28
-270 0 -167 -2 -187 -27 -270 -113 -377 -412 -649 -794 -721 -116 -21 -315
-15 -425 14 -355 95 -618 352 -725 707 -24 82 -27 105 -27 265 -1 182 6 226
55 358 118 324 398 562 749 637 91 19 293 19 388 -1z m-3173 -540 c262 -64
447 -292 462 -569 6 -121 -11 -206 -63 -312 -108 -218 -358 -360 -599 -340
-162 14 -305 84 -413 202 -107 117 -162 260 -162 419 1 408 375 697 775 600z
m1420 -855 c505 -65 969 -387 1217 -846 185 -342 241 -778 147 -1155 -131
-526 -507 -950 -1015 -1143 -86 -32 -233 -71 -334 -86 -115 -18 -381 -16 -500
4 -693 117 -1229 654 -1347 1349 -19 118 -22 384 -4 498 65 415 283 791 606
1045 350 274 781 391 1230 334z m-2069 -258 c359 -109 469 -568 197 -823 -66
-61 -131 -97 -215 -119 -91 -24 -156 -24 -246 0 -182 48 -319 194 -358 383
-50 237 97 481 336 558 76 25 207 25 286 1z m-61 -1050 c193 -90 276 -321 183
-509 -128 -257 -486 -285 -650 -51 -52 74 -71 142 -66 238 13 268 290 436 533
322z m155 -763 c173 -53 260 -257 181 -423 -113 -239 -448 -237 -559 4 -36 78
-36 174 0 252 68 148 219 215 378 167z m358 -544 c81 -34 131 -111 132 -202 0
-162 -166 -264 -313 -193 -126 61 -160 225 -69 331 63 74 164 100 250 64z
m368 -343 c103 -47 153 -182 105 -287 -38 -84 -147 -144 -233 -127 -111 21
-182 105 -183 218 0 92 40 152 135 202 36 19 128 16 176 -6z"/>
</g>
</svg>
